<svg width="155" height="155" viewBox="0 0 155 155" fill="none" xmlns="http://www.w3.org/2000/svg">
<g clip-path="url(#clip0_355_816)">
<path d="M12.9167 38.8333H0V71.125H0.0645833L0 129.25C0 136.354 5.8125 142.167 12.9167 142.167H129.167V129.25H12.9167V38.8333ZM142.083 25.9167H90.4167L77.5 13H38.75C31.6458 13 25.8979 18.8125 25.8979 25.9167L25.8333 103.417C25.8333 110.521 31.6458 116.333 38.75 116.333H142.083C149.188 116.333 155 110.521 155 103.417V38.8333C155 31.7292 149.188 25.9167 142.083 25.9167ZM45.2083 96.9583L74.2708 58.2083L96.875 87.3354L113.021 67.8958L135.625 96.9583H45.2083Z" fill="#CED4DA"/>
</g>
<defs>
<clipPath id="clip0_355_816">
<rect width="155" height="155" fill="white"/>
</clipPath>
</defs>
</svg>
