<svg width="40" height="40" viewBox="0 0 40 40" fill="none" xmlns="http://www.w3.org/2000/svg">
<g clip-path="url(#clip0_83_682)">
<path d="M30 26.7999C28.7333 26.7999 27.6 27.2999 26.7333 28.0833L14.85 21.1666C14.9333 20.7833 15 20.3999 15 19.9999C15 19.5999 14.9333 19.2166 14.85 18.8333L26.6 11.9833C27.5 12.8166 28.6833 13.3333 30 13.3333C32.7667 13.3333 35 11.0999 35 8.33325C35 5.56659 32.7667 3.33325 30 3.33325C27.2333 3.33325 25 5.56659 25 8.33325C25 8.73325 25.0667 9.11658 25.15 9.49992L13.4 16.3499C12.5 15.5166 11.3167 14.9999 10 14.9999C7.23333 14.9999 5 17.2333 5 19.9999C5 22.7666 7.23333 24.9999 10 24.9999C11.3167 24.9999 12.5 24.4832 13.4 23.6499L25.2667 30.5833C25.1833 30.9333 25.1333 31.2999 25.1333 31.6666C25.1333 34.3499 27.3167 36.5332 30 36.5332C32.6833 36.5332 34.8667 34.3499 34.8667 31.6666C34.8667 28.9832 32.6833 26.7999 30 26.7999Z" fill="black"/>
</g>
<defs>
<clipPath id="clip0_83_682">
<rect width="40" height="40" fill="white"/>
</clipPath>
</defs>
</svg>
