<svg width="38" height="33" viewBox="0 0 38 33" fill="none" xmlns="http://www.w3.org/2000/svg">
<path d="M36 26.7778V28.5555C36 30.5111 34.2 32.1111 32 32.1111H4C1.78 32.1111 0 30.5111 0 28.5555V3.66664C0 1.71108 1.78 0.111084 4 0.111084H32C34.2 0.111084 36 1.71108 36 3.66664V5.44442H18C15.78 5.44442 14 7.04442 14 8.99997V23.2222C14 25.1778 15.78 26.7778 18 26.7778H36ZM18 23.2222H38V8.99997H18V23.2222ZM26 18.7778C24.34 18.7778 23 17.5866 23 16.1111C23 14.6355 24.34 13.4444 26 13.4444C27.66 13.4444 29 14.6355 29 16.1111C29 17.5866 27.66 18.7778 26 18.7778Z" fill="black"/>
</svg>
